{"title":"Dune(1984)MP-4[DaScubaDude]","uid":12388966,"size":1591985788,"categoryP":"video","categoryS":"movies","magnet":"?xt=urn:btih:a42f8bdbf2202e46ba9c178025fb89830076cd64&amp;dn=Dune%281984%29MP-4%5BDaScubaDude%5D&amp;tr=udp%3A%2F%2Ftracker.openbittorrent.com%3A80&amp;tr=udp%3A%2F%2Fopen.demonii.com%3A1337&amp;tr=udp%3A%2F%2Ftracker.coppersurfer.tk%3A6969&amp;tr=udp%3A%2F%2Fexodus.desync.com%3A6969","seeders":0,"leechers":0,"uploader":"dascuba","files":1,"time":1441861937,"description":"Dune (1984)\nPG-13  |  137 min  |  Action, Adventure, Sci-Fi  |  14 December 1984 (USA)\n6.6 Your rating:   -/10   Ratings: 6.6/10 from 91,830 users   \nReviews: 562 user | 140 critic\nA Duke's son leads desert warriors against the galactic emperor and his father's evil nemesis when they assassinate his father and free their desert world from the emperor's rule.\n\nDirector: David Lynch\nWriters: Frank Herbert (novel), David Lynch (screenplay)\nStars: Kyle MacLachlan, Virginia Madsen, Francesca Annis\n\nGeneral\nComplete name                            : C:Dune (1984)DUNE_Title1_1.mp4\nFormat                                   : MPEG-4\nFormat profile                           : Base Media\nCodec ID                                 : isom\nFile size                                : 1.48 GiB\nDuration                                 : 2h 16mn\nOverall bit rate mode                    : Constant\nOverall bit rate                         : 1 557 Kbps\nMovie name                               : DUNE\nGenre                                    : Science_Fiction\nWriting application                      : Lavf54.6.100\n\nVideo\nID                                       : 1\nFormat                                   : MPEG-4 Visual\nFormat settings, BVOP                    : No\nFormat settings, QPel                    : No\nFormat settings, GMC                     : No warppoints\nFormat settings, Matrix                  : Default (H.263)\nCodec ID                                 : 20\nDuration                                 : 2h 16mn\nBit rate mode                            : Constant\nBit rate                                 : 1 423 Kbps\nWidth                                    : 720 pixels\nHeight                                   : 404 pixels\nDisplay aspect ratio                     : 16:9\nFrame rate mode                          : Constant\nFrame rate                               : 29.970 fps\nColor space                              : YUV\nChroma subsampling                       : 4:2:0\nBit depth                                : 8 bits\nScan type                                : Progressive\nCompression mode                         : Lossy\nBits/(Pixel*Frame)                       : 0.163\nStream size                              : 1.36 GiB (91%)\nWriting library                          : Lavc54.23.100\n\nAudio\nID                                       : 2\nFormat                                   : MPEG Audio\nFormat version                           : Version 1\nFormat profile                           : Layer 3\nCodec ID                                 : 6B\nDuration                                 : 2h 16mn\nBit rate mode                            : Constant\nBit rate                                 : 128 Kbps\nChannel(s)                               : 2 channels\nSampling rate                            : 44.1 KHz\nCompression mode                         : Lossy\nStream size                              : 125 MiB (8%)\nWriting library                          : LAME3.99.5","torrent":{"xt":"urn:btih:a42f8bdbf2202e46ba9c178025fb89830076cd64","amp;dn":"Dune%281984%29MP-4%5BDaScubaDude%5D","amp;tr":["udp%3A%2F%2Ftracker.openbittorrent.com%3A80","udp%3A%2F%2Fopen.demonii.com%3A1337","udp%3A%2F%2Ftracker.coppersurfer.tk%3A6969","udp%3A%2F%2Fexodus.desync.com%3A6969"],"infoHash":"a42f8bdbf2202e46ba9c178025fb89830076cd64","infoHashBuffer":{"type":"Buffer","data":[164,47,139,219,242,32,46,70,186,156,23,128,37,251,137,131,0,118,205,100]},"announce":[],"urlList":[]}}